# xmcd CD database file
#
# Track frame offsets:
#	150
#	14702
#	30195
#	47490
#	63733
#	74236
#	90045
#	104745
#	120320
#	138963
#	156245
#	169742
#	188599
#	198021
#	212898
#	229214
#	246072
#	265244
#	282862
#	298279
#
# Disc length: 4214 seconds
#
# Revision: 0
# Processed by: cddbd v1.5.1PL2 Copyright (c) Steve Scherf et al.
# Submitted via: Feurio! 1.68 - http://www.feurio.com
#
DISCID=24107414
DTITLE=Roy Orbison               Willie Nelson - Willie Nelson              
DTITLE=Roy Orbison
DYEAR=1900
DGENRE=Country
TTITLE0=Willie Nelson - Nothing I Can Do About It Now
TTITLE1=Roy Orbison                - You Got It
TTITLE2=Willie Nelson - The Highway
TTITLE3=Roy Orbison               - In The Real World
TTITLE4=Willie Nelson - I Never Cared For You
TTITLE5=Roy Orbison              - (All I Can Do Is) Dream You
TTITLE6=Willie Nelson - If I Were A Painting
TTITLE7=Roy Orbison             - A Love So Beautiful
TTITLE8=Willie Nelson - Spirit
TTITLE9=Roy Orbison               - California Blue
TTITLE10=Willie Nelson - There You Are
TTITLE11=Roy Orbison              - She's A Mystery To Me
TTITLE12=Willie Nelson - Mr Record Man
TTITLE13=Roy Orbison             - The Comedians
TTITLE14=Willie Nelson - If My World Didn't Have You
TTITLE15=Roy Orbison               - The Only One
TTITLE16=Willie Nelson - A Horse Called Music
TTITLE17=Roy Orbison             - Windsurfer
TTITLE18=Willie Nelson - Is The Better Part Over
TTITLE19=Roy Orbison          - Careless Heart
EXTD=
EXTT0=
EXTT1=
EXTT2=
EXTT3=
EXTT4=
EXTT5=
EXTT6=
EXTT7=
EXTT8=
EXTT9=
EXTT10=
EXTT11=
EXTT12=
EXTT13=
EXTT14=
EXTT15=
EXTT16=
EXTT17=
EXTT18=
EXTT19=
PLAYORDER=
